<svg xmlns="http://www.w3.org/2000/svg" xmlns:xlink="http://www.w3.org/1999/xlink" version="1.1" x="0px" y="0px" viewBox="0 0 88 88" enable-background="new 0 0 88 88" xml:space="preserve"><title>Wireframe Icon Share</title><desc>Created with Sketch.</desc><path d="M58,36c-2.416,0-4.577,1.076-6.044,2.769L37.72,32.07C37.897,31.408,38,30.717,38,30c0-4.418-3.582-8-8-8s-8,3.582-8,8  s3.582,8,8,8c2.256,0,4.29-0.938,5.745-2.439l14.427,6.79C50.061,42.883,50,43.434,50,44c0,0.565,0.061,1.117,0.172,1.649  l-14.428,6.79C34.29,50.938,32.256,50,30,50c-4.418,0-8,3.582-8,8s3.582,8,8,8s8-3.582,8-8c0-0.717-0.103-1.408-0.28-2.069  l14.236-6.7C53.423,50.924,55.584,52,58,52c4.418,0,8-3.582,8-8C66,39.582,62.418,36,58,36z M30,34c-2.209,0-4-1.791-4-4  s1.791-4,4-4s4,1.791,4,4S32.209,34,30,34z M30,62c-2.209,0-4-1.791-4-4s1.791-4,4-4s4,1.791,4,4S32.209,62,30,62z M58,48  c-2.209,0-4-1.791-4-4s1.791-4,4-4s4,1.791,4,4S60.209,48,58,48z"/></svg>